<?xml version="1.0" encoding="utf-8"?>
<svg xmlns="http://www.w3.org/2000/svg" width="512" height="512" viewBox="570 360 400 310">
 <g fill="#082041">
  <path d="M759.38 602.22 c0 -0.62 5.05 -7.75 11.20 -16 l11.20 -15.14 26.58 0 c14.65 0 29.17 -0.62 32.25 -1.35 19.82 -4.55 38.15 -15.02 48.25 -27.45 7.02 -8.74 13.54 -21.91 16.49 -32.74 3.08 -11.82 2.83 -34.58 -0.62 -47.38 -6.28 -23.51 -24.37 -43.20 -48.12 -52.18 -13.54 -5.17 -24.86 -6.28 -66.58 -6.28 l-39.26 0 -0.25 40.12 c-0.37 34.22 -0.62 40.37 -2.22 41.23 -0.98 0.49 -9.60 3.08 -19.08 5.78 l-17.23 4.68 -0.62 -53.05 c-0.49 -47.51 -0.86 -53.42 -2.71 -56.25 -2.58 -3.82 -9.72 -9.60 -12.06 -9.60 -1.23 0 -1.23 -0.37 0 -1.85 2.34 -2.83 138.22 -2.71 154.46 0.12 49.11 8.62 80.49 36.06 92.55 81.23 2.83 10.71 3.20 14.52 3.20 31.26 0 16.74 -0.37 20.55 -3.20 31.38 -12.80 47.88 -48.98 76.92 -103.38 82.95 -13.42 1.48 -80.86 1.85 -80.86 0.49z"/>
  <path d="M747.08 582.15 c0 -12.31 0.37 -14.77 1.85 -14.77 0.98 0 1.85 0.86 1.85 1.85 0 1.48 1.72 1.85 8.62 1.85 4.80 0 8.62 0.37 8.62 0.74 0 0.37 -3.69 5.42 -8.12 11.20 -4.43 5.78 -8.37 11.20 -8.74 12.18 -0.37 0.98 -1.35 1.72 -2.34 1.72 -1.35 0 -1.72 -2.95 -1.72 -14.77z"/>
  <path d="M707.69 516.68 c0 -6.52 0.12 -6.65 4.80 -8.62 4.31 -1.85 42.83 -12.06 59.82 -15.75 8 -1.85 13.05 -5.05 17.23 -11.08 3.45 -5.05 3.45 -5.05 1.60 -11.08 -1.72 -5.42 -1.72 -6.28 -0.12 -7.63 0.98 -0.74 3.82 -1.48 6.15 -1.48 3.69 0 5.29 0.98 11.57 8.12 10.83 12.06 13.42 12.80 36.06 10.34 9.85 -1.11 22.65 -1.97 28.18 -1.97 15.75 0 27.57 4.55 23.38 8.74 -1.72 1.72 -49.72 8.49 -58.83 8.25 -4.31 0 -9.23 0.74 -11.82 1.85 -2.46 0.98 -15.26 3.94 -28.31 6.40 -32.25 6.15 -80.49 16.98 -87.75 19.82 -1.60 0.62 -1.97 -0.25 -1.97 -5.91z"/>
 </g>
 <g fill="#be8e3b">
  <path d="M683.94 648.74 c-8.12 -3.32 -13.29 -7.51 -16.62 -13.54 -2.58 -4.55 -2.71 -5.17 -0.74 -5.91 1.11 -0.37 4.92 0.25 8.37 1.60 14.89 5.29 27.08 1.60 32.86 -10.22 2.83 -5.78 2.95 -6.77 3.32 -44.31 0.37 -27.57 0.86 -38.65 1.85 -39.51 1.85 -1.35 36.43 -9.48 37.17 -8.62 1.23 1.11 0.62 80.62 -0.62 87.14 -2.71 14.03 -12.31 27.08 -23.63 32.12 -9.23 4.06 -33.11 4.80 -41.97 1.23z"/>
  <path d="M581.42 557.66 c2.22 -2.46 34.09 -16.49 59.82 -26.34 20.18 -7.88 58.83 -20.55 64.74 -21.42 l5.17 -0.62 0.37 6.28 c0.62 7.63 2.09 6.77 -26.58 14.15 -11.45 2.95 -25.11 6.65 -30.15 8.12 -5.05 1.48 -10.58 2.95 -12.31 3.32 -4.68 0.98 -33.48 9.85 -47.38 14.65 -14.52 4.92 -16.74 5.17 -13.66 1.85z"/>
 </g>
</svg>