<?xml version="1.0"?>
<svg version="1.0" xmlns="http://www.w3.org/2000/svg" viewBox="160 360 420 320" preserveAspectRatio="xMidYMid meet">
 <!-- White D + jet body -->
 <g fill="#FFFFFF">
  <path d="M275.69 599.63 c0 -0.74 2.71 -4.80 5.91 -9.11 3.32 -4.31 8.12 -10.46 10.58 -13.91 2.58 -3.32 5.42 -6.52 6.15 -7.02 0.74 -0.49 13.05 -0.98 27.32 -0.98 21.91 0 27.45 -0.37 35.69 -2.46 24.98 -6.40 45.78 -22.52 55.63 -43.08 7.14 -14.77 9.11 -23.88 9.11 -40 0 -24.25 -6.40 -41.60 -21.05 -57.48 -9.23 -10.09 -17.60 -15.88 -29.29 -20.18 -16 -6.03 -22.03 -6.65 -67.57 -6.65 l-42.34 0 0 41.11 0 40.98 -18.34 5.17 c-9.97 2.71 -18.83 5.05 -19.69 5.05 -0.98 0 -1.35 -14.03 -1.35 -52.92 0 -58.09 0.12 -56.86 -7.38 -63.26 -2.22 -1.72 -5.29 -3.57 -6.89 -3.94 -2.46 -0.62 -2.71 -1.11 -1.60 -2.46 1.23 -1.48 13.42 -1.72 72.62 -1.72 43.82 0 74.71 0.49 80.62 1.35 29.66 4.06 57.23 17.60 74.09 36.31 43.69 48.49 36.06 136.12 -15.14 171.45 -16.37 11.32 -32.12 17.97 -51.82 21.54 -12.43 2.34 -95.26 4.18 -95.26 2.22z"/>
  <path d="M263.02 580.06 c0.74 -14.89 1.11 -16.74 2.58 -14.28 0.49 0.86 5.17 1.97 10.34 2.46 l9.35 0.98 -9.85 12.31 c-5.42 6.77 -10.58 12.43 -11.57 12.68 -1.35 0.37 -1.48 -2.09 -0.86 -14.15z"/>
  <path d="M222.77 512.74 c0 -5.78 0.37 -6.89 2.22 -6.89 1.23 0 2.71 -0.49 3.32 -1.11 0.74 -0.62 12.80 -3.94 27.08 -7.38 40.25 -9.85 41.35 -10.22 47.88 -17.48 6.15 -6.89 6.52 -8.25 3.82 -15.88 -0.98 -2.83 -1.48 -5.66 -1.11 -6.28 0.37 -0.62 3.20 -1.11 6.28 -1.11 5.42 0 6.03 0.37 13.54 8.49 4.31 4.68 9.48 9.23 11.57 9.97 2.58 1.11 7.88 1.35 18.71 0.74 44.43 -2.34 45.78 -2.34 52.31 -0.25 13.54 4.55 9.60 7.38 -14.52 10.58 -10.46 1.35 -22.40 3.08 -26.46 3.82 -3.94 0.74 -9.60 0.98 -12.31 0.62 -3.20 -0.49 -7.02 -0.12 -10.46 1.11 -3.08 1.11 -21.78 5.29 -41.60 9.35 -29.29 5.91 -66.95 14.52 -78.03 17.85 -1.97 0.62 -2.22 -0.25 -2.22 -6.15z"/>
 </g>
 <!-- Gold swoosh / J tail -->
 <g fill="#E3C07A">
  <path d="M203.08 648.74 c-12.80 -3.94 -26.83 -18.09 -22.28 -22.65 0.98 -0.98 2.95 -0.62 7.02 1.35 10.95 5.42 22.40 4.68 30.03 -1.72 7.88 -6.77 8 -6.89 8.62 -51.45 l0.62 -40.62 16 -4.06 c8.86 -2.22 17.48 -4.06 19.45 -4.06 l3.32 0 0 20.92 c0 20.80 0 20.92 2.83 21.05 1.97 0.12 2.22 0.25 0.62 0.74 -1.85 0.49 -2.22 1.97 -2.22 8.12 0 9.23 -1.11 30.28 -1.85 37.54 -0.74 6.28 -4.31 13.78 -10.09 20.92 -2.95 3.69 -7.14 6.65 -14.40 10.09 -9.85 4.80 -10.58 4.92 -22.40 4.80 -6.65 0 -13.54 -0.49 -15.26 -0.98z"/>
  <path d="M111.02 548.31 c2.46 -2.46 9.85 -6.40 19.45 -10.46 20.68 -8.62 40.49 -16 42.95 -16 1.11 0 3.57 -0.86 5.42 -1.85 5.42 -2.83 41.23 -14.15 44.68 -14.15 2.95 0 3.08 0.37 2.71 6.40 l-0.37 6.28 -8 2.34 c-4.43 1.35 -14.89 4.31 -23.38 6.65 -8.49 2.34 -16.98 5.05 -19.08 6.03 -1.97 0.86 -6.77 1.97 -10.46 2.34 -6.77 0.62 -31.88 7.75 -40.37 11.57 -2.58 1.11 -7.51 2.58 -11.08 3.32 l-6.52 1.48 4.06 -3.94z"/>
 </g>
</svg>
