<?xml version="1.0"?>

<svg version="1.0" xmlns="http://www.w3.org/2000/svg" width="1536px" height="1024px" viewBox="0 0 1536 1024" preserveAspectRatio="xMidYMid meet">
 <g fill="#fffffe">
  <path d="M0 512 l0 -512 768 0 768 0 0 512 0 512 -768 0 -768 0 0 -512z m237.05 129.23 c10.83 -5.29 16.12 -10.34 21.54 -20.92 2.09 -4.31 2.95 -8.37 3.45 -18.46 l0.74 -12.92 6.52 -8 6.52 -8 -6.89 -1.11 -6.77 -1.11 0 -20.55 0 -20.68 -15.63 3.94 -15.75 3.94 -0.62 40.62 c-0.62 44.55 -0.74 44.68 -8.62 51.45 -5.17 4.31 -12.55 6.03 -23.14 5.42 -8.74 -0.62 -8.86 -0.62 -6.77 1.85 2.34 2.46 10.09 6.77 15.14 8.37 1.72 0.49 6.89 0.98 11.57 0.98 7.63 0.12 9.72 -0.49 18.71 -4.80z m129.72 -47.51 c50.22 -8.74 83.69 -40.37 93.66 -88.49 8.49 -40.86 -8.98 -87.75 -41.23 -110.77 -15.38 -10.95 -38.40 -19.82 -59.08 -22.65 -5.78 -0.86 -34.71 -1.35 -73.60 -1.35 l-64.12 0 2.46 2.83 c5.29 5.66 5.29 6.15 5.29 60.55 0 44.92 0.25 52.43 1.72 51.94 0.98 -0.37 8.25 -2.46 16 -4.68 l14.28 -3.82 0 -41.11 0 -41.11 46.03 0 c49.48 0 55.02 0.49 71.26 6.65 23.51 8.86 42.34 30.40 48.37 55.51 1.48 6.03 2.09 13.91 2.09 25.85 0 20.06 -1.60 27.82 -9.23 43.69 -9.85 20.55 -30.65 36.68 -55.63 43.08 -8.25 2.09 -13.78 2.46 -35.69 2.46 -14.28 0 -26.58 0.49 -27.32 0.98 -0.74 0.49 -5.05 5.66 -9.60 11.57 l-8.12 10.71 3.45 0.49 c7.38 1.23 68.80 -0.62 79.02 -2.34z m684.68 -78.65 c13.42 -24.62 24.25 -45.17 24.25 -45.54 0 -0.49 -1.23 -0.62 -2.71 -0.37 -2.09 0.25 -5.54 6.03 -16.25 26.83 -13.66 26.34 -13.66 26.46 -17.97 26.83 l-4.31 0.37 -13.54 -27.20 c-11.69 -23.38 -13.91 -27.08 -16.25 -27.08 -1.60 0 -2.83 0.37 -2.83 0.74 0 0.49 6.89 14.28 15.38 30.77 18.22 35.32 18.22 35.08 9.97 49.85 -5.29 9.35 -5.42 9.72 -2.71 9.72 2.46 0 6.03 -6.03 26.95 -44.92z m-301.66 20.18 c4.92 -0.74 9.97 -1.85 11.08 -2.46 3.69 -1.85 12.92 -1.35 13.78 0.86 0.49 1.23 1.85 1.72 4.06 1.48 l3.45 -0.37 0 -23.38 c-0.12 -20.68 -0.37 -24 -2.46 -28.18 -6.15 -12.31 -19.20 -16.37 -44.92 -14.40 -15.51 1.23 -19.69 2.09 -19.69 3.69 0 0.49 10.34 0.62 23.14 0.37 20.31 -0.37 23.51 -0.12 27.32 1.85 5.91 3.08 8.62 8.98 8.62 18.71 l0 7.88 -9.48 -1.11 c-5.29 -0.62 -16 -1.11 -23.75 -1.11 -12.80 0 -14.77 0.37 -21.17 3.32 -12.31 5.78 -15.51 16.25 -7.51 24.62 8 8.49 19.45 10.95 37.54 8.25z m105.60 -1.35 c7.88 -2.34 6.15 -2.83 -9.60 -2.46 -15.14 0.37 -15.88 0.25 -22.28 -3.08 -9.85 -5.05 -11.82 -9.48 -11.82 -26.22 0 -15.26 1.97 -20.55 9.35 -25.48 9.97 -6.52 34.09 -6.77 47.14 -0.37 l5.66 2.71 0 23.26 0 23.38 -5.17 2.34 -5.29 2.46 5.29 0 c4.31 0 5.17 0.37 5.17 2.46 0 1.97 0.86 2.46 4.31 2.46 l4.31 0 0 -46.15 0 -46.15 -4.31 0 -4.31 0 0 14.77 0 14.77 -4.80 0 c-2.58 0 -7.14 -0.86 -10.09 -1.97 -3.45 -1.35 -9.35 -2.09 -16.49 -2.09 -17.48 -0.12 -28.92 5.54 -35.82 17.85 -3.08 5.66 -3.57 7.88 -3.57 15.75 0 9.85 2.09 15.51 8.62 23.14 8 9.60 27.94 13.54 43.69 8.62z m95.75 0.98 c4.31 -0.98 8.12 -2.09 8.49 -2.46 0.49 -0.37 -5.91 -0.74 -14.03 -0.74 -20.31 0 -27.45 -2.83 -32.62 -12.68 -2.09 -4.18 -2.58 -7.38 -2.58 -16.37 -0.12 -19.69 6.40 -27.82 24.37 -30.40 11.20 -1.60 26.22 0.12 33.85 4.06 l4.92 2.46 0 23.88 0 23.88 -4.55 1.85 -4.68 1.97 4.68 0 c3.69 0.12 4.55 0.62 4.55 2.58 0 1.97 0.86 2.46 4.31 2.46 l4.31 0 0 -46.89 0 -46.89 -2.71 0.74 c-1.60 0.37 -3.57 0.74 -4.31 0.74 -1.23 0 -1.60 3.82 -1.60 14.77 l0 14.77 -4.80 0 c-2.58 0 -7.02 -0.74 -9.72 -1.72 -21.54 -7.63 -47.63 1.48 -55.02 19.32 -3.94 9.35 -2.09 22.52 4.18 31.26 4.55 6.28 9.11 9.48 16.74 11.94 11.82 3.57 15.26 3.82 26.22 1.48z m205.78 0.37 c10.71 -1.72 16.98 -5.42 19.82 -11.45 4.68 -10.46 -2.83 -16.86 -26.58 -22.89 -22.89 -5.91 -25.97 -7.02 -27.57 -10.58 -2.34 -5.17 -1.72 -11.32 1.60 -14.65 3.94 -3.94 11.20 -4.80 32.98 -3.82 11.57 0.49 18.22 0.37 18.22 -0.37 0 -2.09 -8.37 -3.08 -25.23 -3.08 -19.32 0 -25.35 1.48 -31.63 7.88 -5.42 5.42 -6.15 10.22 -2.09 15.26 3.94 4.92 8.62 6.89 29.29 11.94 22.65 5.54 24.74 7.02 24.74 16.49 0 8 -1.97 9.97 -11.82 11.82 -7.02 1.35 -35.57 0.74 -41.97 -0.98 -1.97 -0.49 -2.83 -0.12 -2.83 1.23 0 1.48 1.97 2.09 8.37 2.71 4.55 0.37 9.35 0.86 10.71 1.11 5.66 0.86 16.49 0.62 24 -0.62z m100.31 -0.49 c9.85 -2.58 15.75 -6.65 19.94 -13.78 l3.45 -5.91 0.37 -36.55 c0.49 -40.37 0.86 -38.03 -6.77 -35.94 l-2.83 0.74 0 37.29 c0 36.55 0 37.29 -2.71 41.23 -4.92 7.14 -10.71 9.23 -25.85 9.23 -9.60 0 -13.29 0.37 -13.29 1.48 0 0.86 2.09 1.85 4.68 2.22 2.46 0.49 5.42 0.98 6.40 1.23 4.43 0.86 9.85 0.49 16.62 -1.23z m113.97 -0.25 c1.97 -0.37 3.57 -1.48 3.57 -2.46 0 -1.35 -1.11 -1.60 -5.78 -0.86 -9.11 1.48 -37.29 1.11 -43.08 -0.62 -10.34 -2.95 -16.37 -10.83 -16.37 -21.66 l0 -5.54 34.22 -0.25 34.09 -0.37 0.37 -4.18 c0.49 -4.80 -2.46 -13.29 -6.15 -17.97 -7.02 -8.98 -21.17 -13.54 -36.18 -11.94 -22.40 2.58 -34.95 14.77 -34.95 34.22 0 16.49 9.35 27.08 28.06 31.88 6.89 1.72 32.98 1.60 42.22 -0.25z m64 0.86 c4.68 -2.58 2.22 -3.69 -8 -3.69 -9.23 0 -10.83 -0.37 -13.91 -2.95 l-3.45 -2.95 -0.37 -26.58 -0.37 -26.58 13.54 0 c11.32 0 13.66 -0.37 13.66 -1.85 0 -1.48 -2.34 -1.85 -13.54 -1.85 l-13.54 0 0 -9.23 0 -9.23 -4.31 0 -4.31 0 0 9.23 0 9.23 -4.31 0 c-2.95 0 -4.31 0.62 -4.31 1.85 0 1.23 1.35 1.85 4.31 1.85 l4.31 0 0 23.14 c0 25.60 1.23 30.65 8.25 35.69 6.52 4.68 20.92 6.77 26.34 3.94z m-781.54 -1.72 c9.85 -1.48 11.20 -2.09 17.72 -7.38 10.46 -8.49 14.28 -14.15 17.35 -25.97 6.89 -25.60 -7.02 -48.49 -33.60 -55.38 -5.29 -1.35 -14.40 -1.85 -36.92 -1.85 l-29.91 0 0 45.29 c0 24.98 0.37 45.78 0.86 46.15 1.48 1.60 53.54 0.86 64.49 -0.86z m-481.72 -3.82 c8.74 -4.55 79.75 -22.77 124.68 -31.88 21.29 -4.43 41.23 -8.86 44.31 -9.97 3.20 -1.11 8.74 -1.85 13.54 -1.72 4.43 0.12 13.78 -0.62 20.92 -1.72 7.14 -1.11 16.37 -2.34 20.68 -2.83 15.88 -1.72 7.14 -5.05 -9.97 -3.69 -26.22 1.97 -48.74 2.34 -52.43 0.74 -2.09 -0.74 -7.26 -5.29 -11.57 -9.97 -4.31 -4.68 -8.49 -8.49 -9.11 -8.49 -0.74 0 -0.98 3.20 -0.62 8.37 l0.49 8.25 -5.66 6.40 c-6.77 7.51 -7.75 7.88 -48.12 17.72 -14.15 3.45 -26.34 6.77 -26.95 7.38 -0.74 0.62 -2.71 1.11 -4.55 1.11 -3.69 0 -39.38 11.20 -45.05 14.15 -1.85 0.98 -4.31 1.85 -5.42 1.85 -1.11 0 -5.54 1.35 -9.85 3.08 -7.51 2.83 -7.75 2.95 -3.32 3.08 2.46 0 6.03 -0.86 8 -1.85z m931.94 -79.02 c0.12 -4.80 -0.12 -5.29 -2.95 -5.29 -2.71 0 -3.08 0.49 -3.08 4.31 0 2.95 0.62 4.31 1.85 4.31 1.23 0 1.85 1.23 1.97 3.45 0 2.95 0.12 3.08 1.11 0.86 0.62 -1.35 1.11 -4.80 1.11 -7.63z"></path>
  <path d="M726.15 531.45 c-7.75 -2.22 -9.85 -5.17 -9.85 -14.52 0 -7.26 0.37 -8.49 3.20 -11.20 3.08 -2.95 3.45 -2.95 26.83 -2.95 18.34 0 24.25 0.37 25.72 1.72 1.60 1.23 2.09 3.82 2.09 11.32 0 9.11 -0.25 9.85 -3.20 11.82 -7.14 4.55 -33.85 6.89 -44.80 3.82z"></path>
  <path d="M1310.77 492.80 c0 -4.92 0.74 -8.25 2.58 -11.20 4.31 -6.89 8.25 -8.25 26.34 -8.74 14.77 -0.25 16.37 -0.12 20.80 2.46 6.40 3.69 9.60 9.35 9.85 17.35 l0.12 6.40 -29.78 0.37 -29.91 0.25 0 -6.89z"></path>
  <path d="M598.40 488.98 l0.37 -41.60 22.15 -0.37 c12.55 -0.25 25.60 0.25 30.15 0.98 21.91 3.82 30.65 16.86 29.29 43.94 -0.98 19.20 -6.52 28.80 -20.06 35.08 -5.78 2.58 -8 2.83 -34.22 3.20 l-27.94 0.37 0.25 -41.60z"></path>
 </g>
 <g fill="#031d41">
  <path d="M275.69 599.63 c0 -0.74 2.71 -4.80 5.91 -9.11 3.32 -4.31 8.12 -10.46 10.58 -13.91 2.58 -3.32 5.42 -6.52 6.15 -7.02 0.74 -0.49 13.05 -0.98 27.32 -0.98 21.91 0 27.45 -0.37 35.69 -2.46 24.98 -6.40 45.78 -22.52 55.63 -43.08 7.14 -14.77 9.11 -23.88 9.11 -40 0 -24.25 -6.40 -41.60 -21.05 -57.48 -9.23 -10.09 -17.60 -15.88 -29.29 -20.18 -16 -6.03 -22.03 -6.65 -67.57 -6.65 l-42.34 0 0 41.11 0 40.98 -18.34 5.17 c-9.97 2.71 -18.83 5.05 -19.69 5.05 -0.98 0 -1.35 -14.03 -1.35 -52.92 0 -58.09 0.12 -56.86 -7.38 -63.26 -2.22 -1.72 -5.29 -3.57 -6.89 -3.94 -2.46 -0.62 -2.71 -1.11 -1.60 -2.46 1.23 -1.48 13.42 -1.72 72.62 -1.72 43.82 0 74.71 0.49 80.62 1.35 29.66 4.06 57.23 17.60 74.09 36.31 43.69 48.49 36.06 136.12 -15.14 171.45 -16.37 11.32 -32.12 17.97 -51.82 21.54 -12.43 2.34 -95.26 4.18 -95.26 2.22z"></path>
  <path d="M263.02 580.06 c0.74 -14.89 1.11 -16.74 2.58 -14.28 0.49 0.86 5.17 1.97 10.34 2.46 l9.35 0.98 -9.85 12.31 c-5.42 6.77 -10.58 12.43 -11.57 12.68 -1.35 0.37 -1.48 -2.09 -0.86 -14.15z"></path>
  <path d="M1019.20 554.22 c2.95 -5.29 6.40 -11.69 7.88 -14.28 l2.46 -4.55 -16.98 -33.23 c-9.48 -18.34 -16.74 -34.09 -16.37 -35.08 0.49 -1.35 2.71 -1.85 7.75 -1.85 l7.14 0 13.54 27.08 c8.12 16.37 13.91 26.58 14.65 25.85 0.62 -0.62 7.02 -12.55 14.28 -26.71 l13.17 -25.60 8.12 -0.37 c4.55 -0.25 8.25 0.12 8.25 0.62 0 0.49 -11.69 22.65 -25.97 49.23 l-26.09 48.37 -8.49 0 -8.49 0 5.17 -9.48z"></path>
  <path d="M726.77 539.69 c-0.62 -0.25 -3.57 -1.11 -6.52 -1.85 -11.69 -2.95 -19.20 -14.89 -16.25 -25.72 1.85 -6.77 5.17 -10.46 12.55 -13.78 5.91 -2.71 8.25 -2.95 24.37 -2.95 9.85 0 20.55 0.49 23.88 0.98 l6.03 1.11 -0.62 -5.66 c-0.86 -7.26 -3.69 -11.57 -9.35 -13.91 -3.69 -1.60 -7.88 -1.72 -23.63 -1.11 -10.46 0.37 -20.43 0.86 -22.15 1.11 -2.83 0.25 -3.08 -0.25 -3.45 -4.80 -0.25 -3.94 0.12 -5.29 1.85 -5.91 1.23 -0.49 10.58 -1.48 20.68 -2.22 29.54 -2.09 42.83 1.85 49.23 14.52 2.22 4.31 2.34 7.38 2.46 31.88 l0 27.08 -7.14 0.37 c-5.42 0.25 -7.26 0 -7.75 -1.48 -0.86 -2.22 -3.20 -2.46 -6.40 -0.86 -5.05 2.58 -32.98 4.92 -37.78 3.20z m29.66 -12.06 c11.45 -2.46 14.03 -4.55 14.03 -11.82 0 -9.11 -0.74 -9.35 -24.12 -9.35 -19.45 0 -20.06 0.12 -23.14 2.95 -4.18 3.94 -4.43 10.83 -0.37 14.52 5.42 5.17 19.45 6.65 33.60 3.69z"></path>
  <path d="M827.20 538.95 c-11.82 -2.34 -19.20 -7.88 -25.11 -18.83 -2.34 -4.31 -2.71 -7.02 -2.71 -17.97 0 -11.94 0.25 -13.42 3.57 -19.45 4.06 -7.38 9.35 -11.82 18.46 -15.51 8.25 -3.32 32.74 -3.57 41.23 -0.37 2.95 1.23 5.78 2.09 6.40 2.09 0.62 0 1.11 -6.65 1.11 -14.77 l0 -14.77 8 0 8 0 0 49.85 0 49.85 -8 0 c-7.14 0 -8 -0.25 -8 -2.46 0 -2.95 -1.97 -3.08 -7.14 -0.62 -7.63 3.82 -24.37 5.29 -35.82 2.95z m37.17 -14.40 l5.78 -2.58 0 -19.69 0 -19.57 -5.42 -2.58 c-12.55 -6.15 -30.52 -6.03 -40.12 0.37 -6.65 4.31 -9.23 10.46 -9.23 21.66 0 12.55 2.71 17.85 11.82 22.52 6.28 3.32 7.38 3.45 18.95 2.95 8.98 -0.37 13.91 -1.11 18.22 -3.08z"></path>
  <path d="M926.15 538.58 c-8.74 -2.34 -11.94 -3.69 -16.37 -7.51 -10.95 -9.11 -14.89 -27.08 -9.85 -43.57 1.72 -5.66 10.09 -14.52 16.98 -17.97 11.82 -5.91 32.37 -7.14 45.42 -2.46 2.95 0.98 5.78 1.85 6.40 1.85 0.62 0 1.11 -6.52 1.11 -14.65 l0 -14.52 3.82 -0.86 c2.09 -0.37 5.78 -0.74 8 -0.74 l4.18 0 0 50.46 0 50.46 -8 0 c-7.14 0 -8 -0.25 -8 -2.46 0 -2.71 -3.57 -3.32 -5.78 -1.11 -2.09 2.09 -16 4.68 -24.37 4.68 -4.06 0 -10.09 -0.74 -13.54 -1.60z m36.92 -13.17 l6.77 -2.46 0 -20.31 0 -20.18 -4.80 -2.34 c-11.94 -6.15 -31.26 -5.91 -40.74 0.37 -12.68 8.37 -13.66 33.85 -1.60 42.34 5.66 3.94 10.22 4.92 22.15 5.05 8.62 0.12 12.92 -0.49 18.22 -2.46z"></path>
  <path d="M1129.23 539.57 c-1.35 -0.25 -6.15 -0.74 -10.71 -1.11 l-8.37 -0.86 0 -5.42 c0 -6.28 -1.85 -5.91 20.43 -4.06 24 2.09 36.18 -0.62 36.18 -8.12 0 -5.42 -4.92 -7.88 -24.74 -12.80 -24.98 -6.15 -29.54 -8.62 -31.88 -17.60 -2.71 -9.97 3.69 -20.06 15.02 -23.38 5.91 -1.72 41.60 -2.09 49.35 -0.62 4.68 0.98 4.68 1.11 4.31 6.15 -0.37 4.92 -0.62 5.17 -4.06 5.05 -1.97 -0.12 -10.83 -0.62 -19.69 -1.11 -18.09 -0.98 -25.35 0.25 -28.31 4.80 -1.60 2.34 -1.60 3.45 -0.49 6.03 1.60 3.69 4.55 4.68 27.45 10.58 21.91 5.66 29.05 10.95 29.05 21.54 0 10.71 -8 18.09 -22.15 20.31 -7.26 1.23 -25.35 1.60 -31.38 0.62z"></path>
  <path d="M1232.98 539.08 c-3.20 -0.62 -6.28 -1.23 -6.77 -1.60 -0.62 -0.37 -0.86 -3.20 -0.62 -6.28 0.49 -5.42 0.62 -5.66 3.82 -4.80 1.72 0.49 7.63 0.86 13.05 0.98 11.57 0 17.97 -2.71 22.52 -9.23 2.71 -3.94 2.71 -4.68 2.71 -41.23 l0 -37.29 2.83 -0.74 c1.48 -0.37 5.42 -0.74 8.62 -0.74 l5.91 0 -0.37 40.37 -0.37 40.25 -3.45 5.91 c-1.85 3.20 -5.54 7.14 -8 8.86 -8.98 5.91 -24.74 8 -39.88 5.54z"></path>
  <path d="M1325.29 538.46 c-13.91 -3.57 -22.65 -10.22 -26.22 -20.18 -2.46 -7.26 -2.46 -23.88 0.25 -31.51 4.43 -13.17 17.35 -20.80 37.91 -22.28 28.55 -1.97 45.78 11.08 44.68 33.97 l-0.37 8 -34.09 0.37 c-37.17 0.37 -35.69 0 -32.86 7.26 3.08 8.25 9.60 12.31 22.65 13.91 8.62 1.11 28.55 0.12 37.91 -1.97 3.32 -0.74 3.32 -0.62 3.32 5.42 0 5.91 -0.12 6.15 -3.94 6.89 -2.22 0.49 -12.68 1.11 -23.14 1.35 -14.28 0.49 -20.80 0.12 -26.09 -1.23z m41.11 -46.15 c-0.74 -5.17 -4.43 -10.34 -9.60 -13.29 -4.31 -2.46 -6.03 -2.71 -17.11 -2.34 -8.49 0.25 -13.54 0.98 -16.25 2.46 -4.55 2.46 -8.98 9.11 -8.98 13.66 l0 3.20 26.22 -0.25 26.09 -0.37 -0.37 -3.08z"></path>
  <path d="M1412.92 538.83 c-6.40 -1.85 -11.08 -5.66 -13.66 -11.32 -1.97 -4.31 -2.34 -8.25 -2.34 -28.06 l0 -23.14 -4.31 0 c-4.31 0 -4.31 0 -4.31 -5.54 0 -5.54 0 -5.54 4.31 -5.54 l4.31 0 0 -9.23 0 -9.23 8 0 8 0 0 9.23 0 9.23 13.54 0 13.54 0 0 5.54 0 5.54 -13.66 0 -13.54 0 0.37 22.89 0.37 22.89 3.45 2.95 c3.08 2.58 4.68 2.95 13.91 2.95 l10.34 0 0 4.92 c0 3.57 -0.62 5.17 -2.34 6.15 -2.95 1.60 -20.18 1.48 -25.97 -0.25z"></path>
  <path d="M585.48 538.22 c-0.49 -0.37 -0.86 -22.89 -0.86 -49.85 l0 -48.98 33.60 0 c36.06 0 41.85 0.74 53.66 6.65 8.86 4.55 16.86 14.03 19.82 23.75 4.31 13.78 2.95 32.98 -3.08 44.68 -3.20 6.40 -5.66 9.11 -13.54 15.51 -6.52 5.29 -7.88 5.91 -17.72 7.38 -11.08 1.72 -70.40 2.46 -71.88 0.86z m71.14 -14.89 c12.43 -5.78 18.71 -15.75 19.94 -31.63 1.72 -22.65 -8.37 -36.43 -29.17 -40 -4.43 -0.74 -16.25 -1.23 -26.46 -0.98 l-18.46 0.37 -0.37 37.91 -0.25 38.03 24.25 -0.49 c22.40 -0.37 24.86 -0.62 30.52 -3.20z"></path>
  <path d="M222.77 512.74 c0 -5.78 0.37 -6.89 2.22 -6.89 1.23 0 2.71 -0.49 3.32 -1.11 0.74 -0.62 12.80 -3.94 27.08 -7.38 40.25 -9.85 41.35 -10.22 47.88 -17.48 6.15 -6.89 6.52 -8.25 3.82 -15.88 -0.98 -2.83 -1.48 -5.66 -1.11 -6.28 0.37 -0.62 3.20 -1.11 6.28 -1.11 5.42 0 6.03 0.37 13.54 8.49 4.31 4.68 9.48 9.23 11.57 9.97 2.58 1.11 7.88 1.35 18.71 0.74 44.43 -2.34 45.78 -2.34 52.31 -0.25 13.54 4.55 9.60 7.38 -14.52 10.58 -10.46 1.35 -22.40 3.08 -26.46 3.82 -3.94 0.74 -9.60 0.98 -12.31 0.62 -3.20 -0.49 -7.02 -0.12 -10.46 1.11 -3.08 1.11 -21.78 5.29 -41.60 9.35 -29.29 5.91 -66.95 14.52 -78.03 17.85 -1.97 0.62 -2.22 -0.25 -2.22 -6.15z"></path>
  <path d="M1094.15 470.28 c0 -0.62 0.86 -3.08 1.85 -5.42 0.98 -2.46 1.85 -5.05 1.85 -5.78 0 -0.62 -0.86 -1.23 -1.85 -1.23 -1.48 0 -1.85 -1.72 -1.85 -8 l0 -8 6.89 0 6.89 0 -0.37 10.22 c-0.49 8.98 -0.98 10.83 -3.94 14.77 -2.34 3.08 -4.43 4.55 -6.52 4.55 -1.60 0 -2.95 -0.49 -2.95 -1.11z"></path>
 </g>
 <g fill="#b78d41">
  <path d="M203.08 648.74 c-12.80 -3.94 -26.83 -18.09 -22.28 -22.65 0.98 -0.98 2.95 -0.62 7.02 1.35 10.95 5.42 22.40 4.68 30.03 -1.72 7.88 -6.77 8 -6.89 8.62 -51.45 l0.62 -40.62 16 -4.06 c8.86 -2.22 17.48 -4.06 19.45 -4.06 l3.32 0 0 20.92 c0 20.80 0 20.92 2.83 21.05 1.97 0.12 2.22 0.25 0.62 0.74 -1.85 0.49 -2.22 1.97 -2.22 8.12 0 9.23 -1.11 30.28 -1.85 37.54 -0.74 6.28 -4.31 13.78 -10.09 20.92 -2.95 3.69 -7.14 6.65 -14.40 10.09 -9.85 4.80 -10.58 4.92 -22.40 4.80 -6.65 0 -13.54 -0.49 -15.26 -0.98z"></path>
  <path d="M524.06 603.08 c-2.46 -5.78 -2.09 -232.62 0.25 -232.62 1.72 0 2.71 120.49 1.60 177.85 -0.62 31.14 -1.48 55.75 -1.85 54.77z"></path>
  <path d="M111.02 548.31 c2.46 -2.46 9.85 -6.40 19.45 -10.46 20.68 -8.62 40.49 -16 42.95 -16 1.11 0 3.57 -0.86 5.42 -1.85 5.42 -2.83 41.23 -14.15 44.68 -14.15 2.95 0 3.08 0.37 2.71 6.40 l-0.37 6.28 -8 2.34 c-4.43 1.35 -14.89 4.31 -23.38 6.65 -8.49 2.34 -16.98 5.05 -19.08 6.03 -1.97 0.86 -6.77 1.97 -10.46 2.34 -6.77 0.62 -31.88 7.75 -40.37 11.57 -2.58 1.11 -7.51 2.58 -11.08 3.32 l-6.52 1.48 4.06 -3.94z"></path>
 </g>
</svg>