<?xml version="1.0"?>

<svg version="1.0" xmlns="http://www.w3.org/2000/svg" width="1536px" height="1024px" viewBox="0 0 1536 1024" preserveAspectRatio="xMidYMid meet">
 <g fill="#ffffff">
  <path d="M0 512 l0 -512 768 0 768 0 0 512 0 512 -768 0 -768 0 0 -512z m722.22 131.69 c15.26 -6.65 24.86 -24.25 24.86 -45.54 0 -6.40 0.37 -7.51 6.15 -14.89 l6.15 -7.88 -6.15 -0.37 -6.15 -0.37 0 -20.92 c0 -11.45 -0.37 -20.80 -0.86 -20.80 -3.20 0.25 -28.92 7.14 -29.91 8.12 -0.62 0.62 -1.23 18.34 -1.48 39.26 -0.37 37.29 -0.49 38.28 -3.32 44.06 -5.42 10.95 -17.97 15.63 -33.35 12.18 l-5.54 -1.35 4.31 3.69 c7.51 6.28 15.14 8.62 27.69 8.12 8.25 -0.37 12.80 -1.11 17.60 -3.32z m114.34 -45.66 c44.68 -4.92 77.54 -25.72 94.52 -59.57 16 -32 16.25 -68.80 0.74 -100.80 -12.55 -25.85 -34.09 -44.43 -62.28 -53.54 -21.91 -7.14 -27.08 -7.51 -97.72 -7.51 l-64.49 0 2.58 2.83 c4.92 5.29 5.17 7.88 5.17 60.18 0 46.03 0.12 50.46 1.97 49.72 1.11 -0.37 7.63 -2.22 14.52 -4.06 6.77 -1.85 13.17 -3.82 14.03 -4.43 1.11 -0.86 1.48 -10.58 1.48 -40.98 l0 -39.88 42.95 0 c45.66 0 56.49 0.98 70.28 6.28 23.75 8.98 41.72 28.55 48.12 52.18 3.57 13.17 3.94 42.58 0.62 54.77 -8.49 31.51 -30.89 52.43 -64.74 60.18 -3.08 0.74 -17.48 1.35 -32.12 1.35 l-26.71 0 -8.74 11.69 c-4.80 6.40 -8.74 11.94 -8.74 12.31 0 1.23 56.62 0.62 68.55 -0.74z m-183.38 -64.62 c3.94 -1.11 16.25 -4.31 27.45 -7.26 11.20 -2.83 23.63 -6.40 27.69 -7.75 10.46 -3.45 46.77 -11.82 79.63 -18.22 15.38 -2.95 31.51 -6.52 35.69 -8 5.29 -1.72 9.48 -2.34 13.29 -1.97 3.08 0.37 16.12 -0.86 28.92 -2.71 22.28 -3.20 23.14 -3.45 18.46 -4.80 -6.52 -1.97 -15.14 -1.85 -34.46 0.37 -29.42 3.32 -33.97 2.22 -44.92 -10.34 -8.37 -9.72 -9.85 -9.72 -8.98 -0.12 0.62 6.65 0.37 7.88 -2.71 12.31 -4.18 6.03 -9.23 9.35 -17.23 11.08 -15.38 3.32 -55.75 13.91 -59.08 15.38 -1.97 0.86 -5.78 1.97 -8.25 2.34 -6.52 1.11 -66.09 21.29 -63.51 21.54 0.49 0.12 4.06 -0.74 8 -1.85z"></path>
 </g>
 <g fill="#082041">
  <path d="M759.38 602.22 c0 -0.62 5.05 -7.75 11.20 -16 l11.20 -15.14 26.58 0 c14.65 0 29.17 -0.62 32.25 -1.35 19.82 -4.55 38.15 -15.02 48.25 -27.45 7.02 -8.74 13.54 -21.91 16.49 -32.74 3.08 -11.82 2.83 -34.58 -0.62 -47.38 -6.28 -23.51 -24.37 -43.20 -48.12 -52.18 -13.54 -5.17 -24.86 -6.28 -66.58 -6.28 l-39.26 0 -0.25 40.12 c-0.37 34.22 -0.62 40.37 -2.22 41.23 -0.98 0.49 -9.60 3.08 -19.08 5.78 l-17.23 4.68 -0.62 -53.05 c-0.49 -47.51 -0.86 -53.42 -2.71 -56.25 -2.58 -3.82 -9.72 -9.60 -12.06 -9.60 -1.23 0 -1.23 -0.37 0 -1.85 2.34 -2.83 138.22 -2.71 154.46 0.12 49.11 8.62 80.49 36.06 92.55 81.23 2.83 10.71 3.20 14.52 3.20 31.26 0 16.74 -0.37 20.55 -3.20 31.38 -12.80 47.88 -48.98 76.92 -103.38 82.95 -13.42 1.48 -80.86 1.85 -80.86 0.49z"></path>
  <path d="M747.08 582.15 c0 -12.31 0.37 -14.77 1.85 -14.77 0.98 0 1.85 0.86 1.85 1.85 0 1.48 1.72 1.85 8.62 1.85 4.80 0 8.62 0.37 8.62 0.74 0 0.37 -3.69 5.42 -8.12 11.20 -4.43 5.78 -8.37 11.20 -8.74 12.18 -0.37 0.98 -1.35 1.72 -2.34 1.72 -1.35 0 -1.72 -2.95 -1.72 -14.77z"></path>
  <path d="M707.69 516.68 c0 -6.52 0.12 -6.65 4.80 -8.62 4.31 -1.85 42.83 -12.06 59.82 -15.75 8 -1.85 13.05 -5.05 17.23 -11.08 3.45 -5.05 3.45 -5.05 1.60 -11.08 -1.72 -5.42 -1.72 -6.28 -0.12 -7.63 0.98 -0.74 3.82 -1.48 6.15 -1.48 3.69 0 5.29 0.98 11.57 8.12 10.83 12.06 13.42 12.80 36.06 10.34 9.85 -1.11 22.65 -1.97 28.18 -1.97 15.75 0 27.57 4.55 23.38 8.74 -1.72 1.72 -49.72 8.49 -58.83 8.25 -4.31 0 -9.23 0.74 -11.82 1.85 -2.46 0.98 -15.26 3.94 -28.31 6.40 -32.25 6.15 -80.49 16.98 -87.75 19.82 -1.60 0.62 -1.97 -0.25 -1.97 -5.91z"></path>
 </g>
 <g fill="#be8e3b">
  <path d="M683.94 648.74 c-8.12 -3.32 -13.29 -7.51 -16.62 -13.54 -2.58 -4.55 -2.71 -5.17 -0.74 -5.91 1.11 -0.37 4.92 0.25 8.37 1.60 14.89 5.29 27.08 1.60 32.86 -10.22 2.83 -5.78 2.95 -6.77 3.32 -44.31 0.37 -27.57 0.86 -38.65 1.85 -39.51 1.85 -1.35 36.43 -9.48 37.17 -8.62 1.23 1.11 0.62 80.62 -0.62 87.14 -2.71 14.03 -12.31 27.08 -23.63 32.12 -9.23 4.06 -33.11 4.80 -41.97 1.23z"></path>
  <path d="M581.42 557.66 c2.22 -2.46 34.09 -16.49 59.82 -26.34 20.18 -7.88 58.83 -20.55 64.74 -21.42 l5.17 -0.62 0.37 6.28 c0.62 7.63 2.09 6.77 -26.58 14.15 -11.45 2.95 -25.11 6.65 -30.15 8.12 -5.05 1.48 -10.58 2.95 -12.31 3.32 -4.68 0.98 -33.48 9.85 -47.38 14.65 -14.52 4.92 -16.74 5.17 -13.66 1.85z"></path>
 </g>
</svg>