<?xml version="1.0"?>

<svg version="1.0" xmlns="http://www.w3.org/2000/svg" width="1536px" height="1024px" viewBox="0 0 1536 1024" preserveAspectRatio="xMidYMid meet">
 <g fill="#fbfbfd">
  <path d="M0 512 l0 -512 768 0 768 0 0 512 0 512 -768 0 -768 0 0 -512z m798.52 22.15 c28.92 -52.80 32.62 -60.31 30.03 -60.31 -1.72 0 -5.66 6.40 -16.25 26.58 l-13.91 26.46 -4.31 -0.37 -4.43 -0.37 -12.92 -26.09 c-11.20 -22.65 -13.29 -26.22 -15.75 -26.22 -1.60 0 -2.83 0.25 -2.83 0.49 0 0.25 6.89 13.78 15.38 30.15 17.97 34.83 18.09 35.08 10.46 48.12 -5.54 9.60 -5.78 10.22 -2.71 9.60 1.35 -0.25 7.63 -10.46 17.23 -28.06z m-284.68 3.08 c4.55 -1.48 4.18 -1.48 -5.54 -0.98 -13.54 0.74 -25.35 -1.11 -29.17 -4.80 -2.58 -2.46 -2.83 -3.57 -2.58 -11.32 0.49 -11.08 2.46 -12.80 17.72 -14.52 11.69 -1.48 35.20 0.37 38.28 2.95 2.34 1.85 2.22 19.94 -0.25 22.28 -1.48 1.60 -1.48 1.85 0.62 2.46 1.48 0.37 2.46 1.72 2.46 3.20 0 1.97 0.74 2.58 3.08 2.58 l3.08 0 0 -22.40 c0 -12.43 -0.62 -24.49 -1.23 -27.08 -1.60 -5.66 -9.35 -12.68 -16.25 -14.65 -8.86 -2.58 -47.75 -1.60 -47.75 1.11 0 0.49 10.34 0.86 23.02 0.86 21.05 0 23.51 0.25 27.45 2.46 5.17 3.08 7.26 8.25 7.26 18.34 l0.12 7.26 -11.32 -1.11 c-15.75 -1.48 -33.72 -0.86 -40.49 1.35 -8.98 2.95 -15.88 12.06 -13.91 18.34 4.18 13.66 25.11 19.94 45.42 13.66z m99.08 -0.12 c3.94 -1.48 3.08 -1.60 -9.85 -1.60 -12.18 -0.12 -15.02 -0.49 -20.43 -3.08 -9.23 -4.31 -11.94 -9.35 -12.55 -23.63 -0.62 -12.55 0.74 -18.22 5.54 -24 5.66 -6.65 9.11 -7.63 27.45 -7.75 15.02 -0.12 17.23 0.12 23.14 2.83 l6.40 2.83 0 23.75 c0 23.26 0 23.63 -2.71 24.98 -2.83 1.35 -2.83 1.35 0.49 1.35 2.46 0.12 3.32 0.86 3.69 2.95 0.25 1.97 1.23 2.71 3.45 2.71 l3.08 0 0 -45.54 0 -45.54 -3.94 -0.37 -4.06 -0.37 0 15.51 0 15.63 -5.78 -0.62 c-3.32 -0.25 -9.23 -1.48 -13.29 -2.71 -17.72 -5.17 -39.02 1.48 -46.77 14.65 -6.77 11.57 -6.03 25.60 1.85 37.05 8 11.57 28.68 16.74 44.31 10.95z m98.46 0 c3.94 -1.48 3.20 -1.60 -9.85 -1.72 -26.71 -0.25 -33.11 -6.03 -33.23 -29.66 0 -14.65 2.71 -20.92 11.20 -25.72 10.46 -5.91 41.97 -4.55 49.48 2.09 1.85 1.72 2.09 4.68 2.09 25.11 0 22.89 0 23.14 -2.71 24 l-2.83 0.98 3.08 0.74 c1.97 0.49 3.20 1.72 3.45 3.45 0.37 2.34 1.11 2.83 3.69 2.46 l3.32 -0.37 0 -45.54 0 -45.54 -3.94 -0.37 -4.06 -0.37 0 15.51 0 15.63 -5.78 -0.62 c-3.32 -0.25 -9.23 -1.48 -13.29 -2.71 -15.63 -4.55 -35.32 0.37 -44.43 10.95 -5.54 6.40 -8.37 16.12 -7.38 24.62 0.98 7.63 6.65 17.97 11.69 21.54 10.95 7.88 27.08 10.09 39.51 5.54z m407.75 1.23 c5.78 -0.49 9.48 -1.35 9.48 -2.22 0 -0.98 -5.66 -1.23 -19.94 -0.98 -11.69 0.25 -22.65 -0.12 -26.34 -0.98 -11.57 -2.46 -17.72 -10.34 -17.72 -22.40 l0 -4.68 34.22 -0.25 34.09 -0.37 -0.25 -5.42 c-0.49 -11.08 -10.09 -22.77 -21.66 -26.22 -2.83 -0.86 -10.09 -1.60 -16.25 -1.60 -9.48 0.12 -12.18 0.62 -18.46 3.45 -9.11 4.31 -12.31 7.14 -16.25 14.77 -5.66 11.32 -5.05 22.03 1.97 33.11 6.28 9.85 24.12 16.37 41.35 15.02 3.45 -0.25 10.46 -0.74 15.75 -1.23z m-703.26 -2.34 c17.35 -4.31 27.57 -13.42 32.25 -29.17 6.52 -21.42 -1.72 -43.45 -19.69 -52.68 -10.46 -5.29 -17.97 -6.40 -48.37 -7.02 l-29.29 -0.74 0 46.52 0 46.52 28.68 -0.74 c20.06 -0.49 30.89 -1.23 36.43 -2.71z m505.97 -0.62 c3.45 -1.97 6.52 -4.92 8 -7.75 l2.46 -4.55 -2.46 -4.55 c-3.45 -6.52 -9.85 -9.60 -31.02 -14.77 -21.17 -5.29 -23.75 -7.02 -23.75 -15.51 0 -3.57 0.86 -6.52 2.34 -8.37 2.34 -2.95 2.58 -2.95 26.46 -2.95 15.51 0 24 -0.49 23.75 -1.23 -0.49 -1.35 -12.55 -2.71 -26.71 -2.95 -10.22 -0.12 -21.91 2.34 -26.46 5.78 -4.06 2.83 -7.14 9.48 -6.03 12.92 2.22 7.26 8.86 10.83 30.40 15.88 8.86 2.09 17.85 4.55 19.69 5.54 6.03 3.08 7.75 13.42 3.20 19.32 l-2.46 3.20 -25.85 0 c-15.14 0 -25.72 0.49 -25.72 1.11 0 1.85 5.54 2.34 27.69 2.09 19.94 -0.12 21.17 -0.25 26.46 -3.20z m94.28 1.85 c7.51 -2.22 14.52 -7.88 18.09 -14.52 2.58 -5.05 2.71 -6.40 2.71 -40.25 l0 -35.08 -3.94 -0.37 -4.06 -0.37 0 34.22 c0 18.83 -0.49 36.31 -1.11 38.89 -2.46 10.22 -10.22 14.65 -26.71 14.89 -10.09 0.12 -11.57 0.37 -11.57 2.34 0 1.85 1.35 2.09 10.22 2.09 5.66 0 13.05 -0.86 16.37 -1.85z m173.78 -0.25 c0.37 -1.23 -2.09 -1.60 -9.23 -1.60 -11.45 0 -15.26 -1.72 -17.23 -7.38 -1.48 -4.43 -2.22 -46.15 -0.86 -49.72 0.62 -1.60 3.08 -1.97 13.54 -1.97 17.11 0 16.74 -2.22 -0.37 -2.71 l-13.29 -0.37 -0.37 -8.86 -0.37 -8.98 -3.57 0 -3.57 0 -0.37 8.98 -0.37 8.86 -3.94 0.37 c-2.22 0.25 -4.06 0.86 -4.06 1.48 0 0.62 1.85 1.23 4.06 1.48 l3.94 0.37 0.62 24.86 c0.74 27.94 0.98 29.05 10.58 34.58 4.06 2.34 6.28 2.71 14.52 2.46 6.52 -0.25 9.97 -0.86 10.34 -1.85z m-331.82 -80.98 c0.37 -4.55 0.12 -4.92 -2.95 -5.29 -3.08 -0.37 -3.45 0 -3.45 3.32 0 2.58 0.62 3.82 1.85 3.82 1.23 0 1.85 1.23 1.85 3.45 0.12 4.92 2.22 0.74 2.71 -5.29z"></path>
  <path d="M1064.62 498.83 c0.12 -6.03 3.69 -14.03 8 -17.35 5.17 -4.18 12.31 -5.42 26.46 -4.92 10.83 0.37 13.66 0.86 17.35 3.20 5.66 3.45 8.49 9.23 8.49 17.35 l0 6.28 -30.15 0 -30.15 0 0 -4.55z"></path>
  <path d="M360.25 533.42 c-0.49 -0.49 -0.86 -19.08 -0.86 -41.35 l0 -40.37 26.22 0 c28.43 0 33.97 0.86 42.71 6.65 10.46 6.89 15.38 24.37 12.55 43.82 -2.22 15.51 -7.26 23.02 -19.32 28.55 -5.66 2.58 -8.12 2.83 -33.23 3.20 -14.89 0.25 -27.45 0 -28.06 -0.49z"></path>
 </g>
 <g fill="#071b3f">
  <path d="M772.68 562.22 c7.14 -11.94 12.55 -21.91 12.55 -23.02 0 -0.74 -7.75 -16.25 -17.23 -34.58 -9.48 -18.22 -17.23 -33.48 -17.23 -33.85 0 -0.37 3.82 -0.62 8.37 -0.62 l8.37 0 12.80 25.97 c7.14 14.28 13.17 26.09 13.66 26.46 0.49 0.25 7.02 -11.45 14.77 -25.97 l13.91 -26.46 7.75 0 c4.31 0 7.75 0.25 7.75 0.62 0 0.62 -13.78 26.34 -35.69 66.46 l-15.38 28.31 -8.49 0.37 -8.37 0.37 2.46 -4.06z"></path>
  <path d="M486.03 542.77 c-12.06 -2.09 -20.18 -8.86 -21.66 -17.72 -1.72 -10.83 3.94 -20.06 14.52 -23.51 7.02 -2.34 31.38 -3.08 44.06 -1.35 l7.88 0.98 -0.74 -5.66 c-1.85 -12.80 -5.54 -14.89 -27.32 -14.89 -8.74 0 -19.08 0.49 -22.89 0.98 l-6.89 0.98 -0.74 -4.68 c-0.49 -2.58 -0.37 -5.05 0.12 -5.54 0.49 -0.49 7.02 -1.48 14.40 -2.34 14.40 -1.48 33.85 -0.86 41.60 1.35 6.40 1.85 14.03 8.98 15.63 14.52 0.62 2.58 1.23 16.37 1.23 30.77 l0 26.09 -6.77 0 c-5.91 0 -6.77 -0.37 -6.77 -2.34 0 -3.82 -1.48 -3.94 -10.58 -0.74 -9.48 3.32 -26.09 4.80 -35.08 3.08z m37.54 -13.05 c2.71 -0.98 5.42 -2.46 5.91 -3.32 1.48 -2.34 1.11 -12.80 -0.49 -14.15 -2.95 -2.34 -23.14 -4.06 -32.86 -2.83 -11.57 1.48 -15.38 4.06 -15.88 10.71 -0.74 9.48 8.12 13.29 27.94 11.94 5.66 -0.37 12.68 -1.35 15.38 -2.34z"></path>
  <path d="M587.08 542.77 c-15.51 -3.32 -24.25 -11.57 -27.94 -26.58 -2.58 -10.58 -0.98 -22.65 4.18 -31.14 9.85 -16 34.83 -20.55 63.51 -11.57 1.97 0.62 2.09 -0.62 2.09 -14.89 l0 -15.63 7.75 0.37 7.63 0.37 0 49.23 0 49.23 -6.77 0 c-6.03 0 -6.77 -0.25 -7.14 -2.71 -0.49 -3.45 0 -3.45 -10.09 0.12 -9.35 3.45 -24.86 4.92 -33.23 3.20z m30.15 -12.43 c2.71 -0.62 6.40 -1.85 8.37 -2.58 l3.32 -1.23 0 -20.06 0 -20.06 -6.40 -2.83 c-5.66 -2.58 -8.25 -2.95 -19.57 -2.83 -14.40 0.25 -18.34 1.60 -23.63 7.75 -4.55 5.42 -6.15 11.57 -5.42 20.55 1.23 15.51 10.09 22.65 28.55 22.65 5.42 0 12.06 -0.62 14.77 -1.35z"></path>
  <path d="M686.77 542.77 c-19.08 -3.45 -29.17 -14.28 -30.40 -33.11 -1.23 -18.22 4.92 -29.91 19.57 -36.43 6.52 -2.95 9.85 -3.69 20.06 -4.06 11.57 -0.49 15.14 0 28.68 4.18 l2.71 0.74 0 -15.51 0 -15.63 7.75 0.37 7.63 0.37 0 49.23 0 49.23 -7.02 0.37 c-6.40 0.37 -7.14 0.12 -7.14 -2.09 0 -3.82 -1.35 -3.94 -9.97 -0.86 -8.86 3.32 -23.51 4.80 -31.88 3.20z m35.45 -14.15 l5.17 -2.09 0 -19.45 c0 -22.28 0.25 -21.91 -11.57 -25.23 -10.34 -3.08 -25.35 -2.09 -32.74 1.97 -7.51 4.18 -11.08 11.20 -11.08 21.91 0.12 12.92 4.55 20.55 14.40 24.25 6.52 2.46 28.68 1.60 35.82 -1.35z"></path>
  <path d="M881.85 542.77 c-8.12 -0.49 -15.51 -0.98 -16.25 -1.11 -0.98 0 -1.60 -1.97 -1.60 -5.05 0 -3.08 0.62 -4.92 1.60 -5.05 0.74 -0.12 12.43 -0.25 25.97 -0.25 l24.49 -0.25 2.34 -3.20 c1.85 -2.46 2.09 -3.69 1.11 -6.40 -1.72 -4.43 -5.54 -6.15 -24.37 -10.46 -24.49 -5.78 -29.78 -9.23 -30.89 -19.69 -0.62 -6.89 1.85 -13.17 6.52 -16.49 7.14 -5.29 26.46 -7.14 51.69 -4.80 l8.62 0.74 0.37 5.05 0.37 4.92 -24.12 0 c-24 -0.12 -24.25 -0.12 -26.58 2.83 -5.91 7.14 -1.23 10.95 19.82 16 27.94 6.77 34.46 11.20 34.46 23.51 0 11.82 -7.88 17.85 -25.72 19.82 -5.78 0.62 -11.08 0.98 -11.82 0.86 -0.62 -0.12 -7.88 -0.62 -16 -0.98z"></path>
  <path d="M1085.54 542.77 c-11.82 -1.72 -22.77 -7.51 -27.20 -14.52 -4.92 -7.88 -6.40 -14.03 -5.78 -24.86 0.37 -6.65 1.48 -10.95 3.69 -15.38 4.06 -7.88 7.26 -10.71 16.37 -15.02 6.77 -3.20 8.62 -3.45 22.15 -3.45 16.86 0 22.89 1.35 30.28 7.14 7.63 5.91 11.45 14.03 11.45 24.74 l0.12 8.74 -34.22 0.37 -34.34 0.25 0.86 4.06 c1.23 5.66 2.58 7.75 7.14 11.20 6.52 5.05 13.66 6.03 36.06 5.42 l20.18 -0.62 0.74 2.83 c1.48 5.78 0.25 7.26 -6.89 8.12 -12.92 1.60 -32.62 2.09 -40.62 0.98z m35.69 -45.66 c0 -4.55 -3.82 -10.83 -8.37 -13.66 -3.08 -1.85 -6.89 -2.83 -13.66 -3.20 -17.60 -0.98 -26.22 3.82 -30.15 16.74 l-0.86 2.71 26.46 0 c26.22 0 26.58 0 26.58 -2.58z"></path>
  <path d="M1170.46 542.89 c-6.65 -0.98 -12.92 -4.43 -16.49 -9.11 -2.34 -3.20 -2.58 -5.54 -3.20 -28.31 l-0.62 -24.86 -3.94 -0.37 c-3.82 -0.37 -4.06 -0.74 -4.06 -5.17 0 -4.43 0.25 -4.80 4.06 -5.17 l3.94 -0.37 0.37 -8.86 0.37 -8.98 7.26 0 7.38 0 0.12 5.29 c0 2.83 0.25 6.89 0.25 8.86 l0.25 3.69 13.54 0.62 c9.72 0.49 13.54 0.98 13.42 2.22 -0.12 0.74 -0.25 2.83 -0.25 4.55 -0.25 3.08 -0.25 3.08 -13.05 3.08 -10.46 0 -12.92 0.37 -13.54 1.97 -1.35 3.57 -0.62 37.91 0.86 42.34 1.97 5.66 5.78 7.38 17.23 7.38 l9.48 0 0 4.92 c0 2.95 -0.62 5.17 -1.48 5.42 -3.32 1.11 -16.62 1.60 -21.91 0.86z"></path>
  <path d="M347.08 492.92 l0 -50.09 32.98 0.62 c24.86 0.49 34.58 1.11 40 2.58 15.38 4.31 24.49 11.32 29.91 23.14 2.83 6.52 3.57 9.85 3.94 20.31 1.11 27.94 -9.97 44.18 -34.34 50.34 -5.78 1.48 -16.37 2.09 -40.12 2.58 l-32.37 0.74 0 -50.22z m70.77 34.09 c11.45 -5.29 16.74 -12.43 19.08 -26.46 1.11 -6.28 1.11 -10.22 0 -16.86 -1.97 -11.94 -6.89 -19.08 -16.49 -24 l-7.26 -3.69 -25.11 -0.37 -24.98 -0.37 0 36.80 c0 20.18 0.37 37.17 0.98 37.66 0.49 0.49 11.45 0.74 24.25 0.49 21.17 -0.37 24 -0.62 29.54 -3.20z"></path>
  <path d="M985.72 538.46 c-0.12 -2.34 -0.25 -5.05 -0.37 -5.78 -0.12 -1.23 3.08 -1.60 11.57 -1.72 16.74 -0.12 24.74 -4.55 27.20 -14.89 0.62 -2.58 1.11 -20.06 1.11 -38.89 l0 -34.22 7.75 0.37 7.63 0.37 0 38.77 c0 37.66 -0.12 38.89 -2.71 43.94 -1.48 2.71 -4.80 6.77 -7.38 8.86 -6.77 5.66 -14.52 7.51 -30.77 7.51 l-13.91 0 -0.12 -4.31z"></path>
  <path d="M848 474.22 c0.12 -0.62 0.86 -2.34 1.85 -4.06 2.34 -4.06 2.34 -8.62 0 -8.62 -1.48 0 -1.85 -1.60 -1.85 -7.38 l0 -7.51 7.14 0.37 7.02 0.37 -0.12 8.12 c-0.25 11.45 -4.80 19.57 -11.08 19.57 -1.60 0 -2.95 -0.37 -2.95 -0.86z"></path>
 </g>
</svg>